<svg version="1.1" class="main-footer__brand-svg" role="img" aria-labelledby="udg-brand" xmlns="http://www.w3.org/2000/svg" xmlns:xlink="http://www.w3.org/1999/xlink" x="0px" y="0px" width="130px" height="88.8px" viewBox="0 0 130 88.8" enable-background="new 0 0 130 88.8" xml:space="preserve">
                        <g>
                            <title id="udg-brand">UdG Home</title>
                            <path fill="#FFFFFF" d="M5.4,32.9c0,2.9,1.4,4.5,4.1,4.5c2.9,0,4.6-1.2,4.6-4.7v-7.8c0-1.4-0.8-1.7-2.4-1.7v-1.2H18v1.2c-1.6,0-2.3,0.3-2.3,1.7v8.3c0,4.1-3,6-6.6,6c-4.3,0-6.9-1.9-6.9-6v-8.3c0-1.4-0.7-1.7-2.3-1.7v-1.2h7.6v1.2c-1.6,0-2.3,0.3-2.3,1.7V32.9L5.4,32.9z"></path>
                            <path fill="#FFFFFF" d="M29.1,30c0-1.5-0.6-2.1-2-2.1c-1.1,0-2.3,0.5-3.2,1v7.6c0,1.1,0.6,1.2,1.7,1.4V39h-6.4v-1.1c1.1-0.1,1.7-0.3,1.7-1.4v-7.9l-1.6-1V27l3.9-1.3h0.7v2.5c1.1-1.2,2.6-2.4,4.6-2.4c2.2,0,3.5,1.2,3.5,4v6.8c0,1.1,0.7,1.2,1.7,1.4V39h-6.4v-1.1c1.1-0.1,1.7-0.3,1.7-1.4V30L29.1,30z"></path>
                            <path fill="#FFFFFF" d="M40,36.6c0,1.1,0.7,1.2,1.7,1.4V39h-6.4v-1.1c1.1-0.1,1.7-0.3,1.7-1.4v-7.9l-1.6-1V27l3.9-1.2H40V36.6L40,36.6z M36.5,22.6c0-1,0.8-1.8,1.9-1.8c1.1,0,1.8,0.8,1.8,1.8c0,1-0.8,1.8-1.8,1.8C37.3,24.4,36.5,23.6,36.5,22.6L36.5,22.6z"></path>
                            <path fill="#FFFFFF" d="M55.8,27.1c-1,0.4-1.2,0.4-1.4,1l-4.9,11.1h-0.8l-5.1-11.1c-0.2-0.5-0.4-0.6-1.4-1v-1.1h6.4v1.1c-1.3,0.2-1.7,0.3-1.7,0.9c0,0.2,0,0.4,0.2,0.7l2.7,6.6l2.8-6.6c0.1-0.3,0.2-0.5,0.2-0.7c0-0.6-0.5-0.7-1.7-0.9v-1.1h4.8V27.1L55.8,27.1z"></path>
                            <path fill="#FFFFFF" d="M67.2,31.3v0.8h-8.4c0,2.9,1.6,4.9,4.2,4.9c1.7,0,2.9-0.8,3.7-2l0.5,0.3c-0.6,2.3-2.4,4-5.3,4c-3.6,0-5.8-2.7-5.8-6.3c0-4.3,2.6-7.1,6-7.1C65.5,25.8,67.2,28.1,67.2,31.3L67.2,31.3z M58.8,30.8h5.6c0-2.2-0.9-3.7-2.7-3.7C60.1,27.2,59,28.9,58.8,30.8L58.8,30.8z"></path>
                            <path fill="#FFFFFF" d="M73.7,29.7c1.4-3,2.1-3.9,3.7-3.9c0.4,0,0.8,0.1,0.9,0.3v2.7h-0.5c-1.5,0-2.6,0.2-4.1,1.7v6c0,1.2,0.6,1.2,2.2,1.4V39h-6.9v-1.1c1.1-0.1,1.7-0.3,1.7-1.4v-7.9l-1.6-1V27l3.8-1.3h0.7V29.7L73.7,29.7z"></path>
                            <path fill="#FFFFFF" d="M79.8,38l-0.1-3.1h1.3c0.5,2,1.6,3.1,3.5,3.1c1.4,0,2.3-0.7,2.3-1.8c0-1.4-1-1.9-3.1-2.5c-2.4-0.7-3.9-1.7-3.9-4c0-2.4,1.7-3.9,4.5-3.9c1.7,0,3,0.4,4.1,1v2.9h-1.2c-0.4-1.8-1.3-2.7-3-2.7c-1.3,0-2,0.7-2,1.7c0,1.2,0.8,1.8,2.8,2.3c2.5,0.7,4.2,1.5,4.2,4.1c0,2.4-1.8,4-4.8,4C82.6,39.3,80.9,38.9,79.8,38L79.8,38z"></path>
                            <path fill="#FFFFFF" d="M95.6,36.6c0,1.1,0.7,1.2,1.7,1.4V39H91v-1.1c1.1-0.1,1.7-0.3,1.7-1.4v-7.9l-1.6-1V27l3.9-1.2h0.7V36.6L95.6,36.6z M92.2,22.6c0-1,0.8-1.8,1.9-1.8c1.1,0,1.8,0.8,1.8,1.8c0,1-0.8,1.8-1.8,1.8C93,24.4,92.2,23.6,92.2,22.6L92.2,22.6z"></path>
                            <path fill="#FFFFFF" d="M103.1,26.1h3.6v1.5h-3.6v8.2c0,1.3,0.6,1.7,1.8,1.7c0.7,0,1.5-0.2,2.1-0.5l0.3,0.8c-0.9,1-2.2,1.6-3.9,1.6c-1.9,0-3.2-0.9-3.2-3.1v-8.6h-1.7v-0.9c1.4-0.7,2.7-1.8,3.8-3.4h0.9V26.1L103.1,26.1z"></path>
                            <path fill="#FFFFFF" d="M118.5,35.9c0,1,0.3,1.5,1,1.5c0.2,0,0.7,0,1.1-0.1l0.1,0.8c-0.8,0.8-1.7,1.3-2.8,1.3c-1.3,0-2-0.9-2.3-2.2c-0.8,1-2.2,2.2-4,2.2c-2.2,0-3.3-1.5-3.3-3.3c0-2.2,1.7-3,3.3-3.6l3.8-1.4v-1.3c0-1.6-0.5-2.6-2.1-2.6c-1.2,0-1.8,0.6-1.8,1.7c0,0.5,0,0.9,0.2,1.4l-2.1,0.3c-0.5-0.3-0.7-0.8-0.7-1.4c0-2.1,2.1-3.2,4.8-3.2c3,0,4.6,1.3,4.6,4.4C118.6,30.8,118.5,35.1,118.5,35.9L118.5,35.9z M115.6,36.4v-4.2l-2.8,1.1c-0.9,0.3-1.4,1-1.4,1.9c0,1.3,0.7,2.1,1.8,2.1C114.2,37.3,114.8,37,115.6,36.4L115.6,36.4z"></path>
                            <path fill="#FFFFFF" d="M125.8,26.1h3.6v1.5h-3.6v8.2c0,1.3,0.6,1.7,1.8,1.7c0.7,0,1.5-0.2,2.1-0.5l0.3,0.8c-0.9,1-2.2,1.6-3.9,1.6c-1.9,0-3.2-0.9-3.2-3.1v-8.6h-1.7v-0.9c1.4-0.7,2.7-1.8,3.8-3.4h0.9V26.1L125.8,26.1z"></path>
                            <path fill="#FFFFFF" d="M9.7,62.9c-0.9,1.3-2.1,2.2-4,2.2c-3.2,0-5.1-2.6-5.1-6.1c0-4.5,2.8-7.3,6.3-7.3c1.2,0,2.3,0.4,2.8,1.1v-3.6l-1.6-1v-0.6l3.9-1.1h0.7V62c0,0.8,0.2,1.1,1.2,1.2l0.6,0v1.1l-4.2,0.8H9.7V62.9L9.7,62.9z M3.6,58c0,2.8,1.2,5.1,3.5,5.1c1,0,2-0.4,2.6-0.9v-6.1C9.7,54,8.7,53,7,53C4.9,53,3.6,55,3.6,58L3.6,58z"></path>
                            <path fill="#FFFFFF" d="M27.1,57.1v0.8h-8.4c0,2.9,1.6,4.9,4.2,4.9c1.7,0,2.9-0.8,3.7-2l0.5,0.3c-0.6,2.3-2.4,4-5.3,4c-3.6,0-5.8-2.7-5.8-6.3c0-4.3,2.6-7.1,6-7.1C25.4,51.7,27.1,54,27.1,57.1L27.1,57.1z M18.7,56.7h5.6c0-2.2-0.9-3.7-2.7-3.7C19.9,53,18.9,54.7,18.7,56.7L18.7,56.7z"></path>
                            <path fill="#FFFFFF" d="M42.8,47.7c2.5,0,4.3,0.7,5.5,1.6V53H47c-0.7-2.7-2.2-4-4.3-4c-3.6,0-5.2,3.2-5.2,7c0,4.4,1.7,7.6,5.4,7.6c1.3,0,2-0.2,2.8-0.8v-3.3c0-1.4-0.7-1.6-2.2-1.7v-1.1h7.2v1.1c-1.5,0.1-2.1,0.3-2.1,1.7v3.8c-1.5,1.1-3.6,1.7-6,1.7c-5.3,0-8.4-3.5-8.4-8.4C34.2,51.1,38.1,47.7,42.8,47.7L42.8,47.7z"></path>
                            <path fill="#FFFFFF" d="M56.8,62.4c0,1.1,0.7,1.2,1.7,1.4v1.1h-6.4v-1.1c1.1-0.1,1.7-0.3,1.7-1.4v-7.9l-1.6-1v-0.6l3.9-1.2h0.7V62.4L56.8,62.4z M53.4,48.4c0-1,0.8-1.8,1.9-1.8c1.1,0,1.8,0.8,1.8,1.8c0,1-0.8,1.8-1.8,1.8C54.2,50.2,53.4,49.4,53.4,48.4L53.4,48.4z"></path>
                            <path fill="#FFFFFF" d="M64.9,55.6c1.4-3,2.1-3.9,3.7-3.9c0.4,0,0.8,0.1,0.9,0.3v2.7H69c-1.5,0-2.6,0.2-4.1,1.7v6c0,1.2,0.6,1.2,2.2,1.4v1.1h-6.9v-1.1c1.1-0.1,1.7-0.3,1.7-1.4v-7.9l-1.6-1v-0.6l3.8-1.3h0.7V55.6L64.9,55.6z"></path>
                            <path fill="#FFFFFF" d="M70.8,58.7c0-4.2,2.8-7,6.3-7c3.7,0,6.1,2.8,6.1,6.5c0,4.2-2.8,7-6.4,7C73.2,65.1,70.8,62.4,70.8,58.7L70.8,58.7z M80.2,58.8c0-3.1-1.3-5.7-3.4-5.7c-2,0-3,2-3,5c0,3.1,1.2,5.7,3.4,5.7C79.2,63.7,80.2,61.7,80.2,58.8L80.2,58.8z"></path>
                            <path fill="#FFFFFF" d="M95,55.9c0-1.5-0.6-2.1-2-2.1c-1.1,0-2.3,0.5-3.2,1v7.6c0,1.1,0.6,1.2,1.7,1.4v1.1h-6.4v-1.1c1.1-0.1,1.7-0.3,1.7-1.4v-7.9l-1.6-1v-0.6l3.9-1.3h0.7v2.5c1.1-1.2,2.6-2.4,4.6-2.4c2.2,0,3.5,1.2,3.5,4v6.8c0,1.1,0.7,1.2,1.7,1.4v1.1h-6.4v-1.1c1.1-0.1,1.7-0.3,1.7-1.4V55.9L95,55.9z"></path>
                            <path fill="#FFFFFF" d="M111.2,61.7c0,1,0.3,1.5,1,1.5c0.2,0,0.7,0,1.1-0.1l0.1,0.8c-0.8,0.8-1.7,1.3-2.8,1.3c-1.3,0-2-0.9-2.3-2.2c-0.8,1-2.2,2.2-4,2.2c-2.2,0-3.3-1.5-3.3-3.3c0-2.2,1.7-3,3.3-3.6l3.8-1.4v-1.3c0-1.6-0.5-2.6-2.1-2.6c-1.2,0-1.8,0.6-1.8,1.7c0,0.5,0,0.9,0.2,1.4l-2.1,0.3c-0.5-0.3-0.7-0.8-0.7-1.4c0-2.1,2.1-3.2,4.8-3.2c3,0,4.6,1.3,4.6,4.4C111.3,56.7,111.2,61,111.2,61.7L111.2,61.7z M108.4,62.3V58l-2.8,1.1c-0.9,0.3-1.4,1-1.4,1.9c0,1.3,0.7,2.1,1.8,2.1C106.9,63.1,107.5,62.9,108.4,62.3L108.4,62.3z"></path>
                            <path fill="#FFFFFF" d="M26.2,0c0.6,2.7,2,4.6,5.6,4.6h12.4c4.4,0,7.2,3.8,7.2,9.1h-1.2c-0.3-3.2-1.7-5.1-5.5-5.1H32.1c-3.8,0-5.1-1.9-6.3-5.6c-1.1,3.7-2.5,5.6-6.3,5.6H7.1c-3.7,0-5.1,1.9-5.5,5.1H0.5c0-5.3,2.7-9.1,7.2-9.1H20c3.6,0,5-2,5.6-4.6H26.2L26.2,0z"></path>
                            <path fill="#FFFFFF" d="M25.6,88.8c-0.6-2.7-2-4.6-5.6-4.6H7.6c-4.4,0-7.2-3.8-7.2-9.1h1.2c0.3,3.2,1.7,5.1,5.5,5.1h12.5c3.8,0,5.1,1.9,6.3,5.6c1.1-3.7,2.5-5.6,6.3-5.6h12.5c3.7,0,5.1-1.9,5.5-5.1h1.2c0,5.3-2.7,9.1-7.2,9.1H31.7c-3.6,0-5,2-5.6,4.6H25.6L25.6,88.8z"></path>
                        </g></svg>